<svg width="64" height="64" viewBox="0 0 64 64" fill="none" xmlns="http://www.w3.org/2000/svg">
<rect x="6.5" y="43.5" width="12" height="16" rx="1" fill="#546978"/>
<rect x="26" y="43.5" width="12" height="16" rx="1" fill="#546978"/>
<rect x="4" y="38.5" width="56" height="6" rx="1" fill="#546978"/>
<rect x="45.5" y="43.5" width="12" height="16" rx="1" fill="#546978"/>
<path fill-rule="evenodd" clip-rule="evenodd" d="M21.4571 28.6003C20.8415 27.1916 20.5 25.6357 20.5 24C20.5 23.2513 20.5715 22.5194 20.7082 21.8106C20.3289 22.2984 19.9803 22.7861 19.6712 23.2694C18.1367 25.6693 16.8401 29.1773 15.9227 32.1187C15.466 33.5829 15.1069 34.8949 14.862 35.8406C14.7396 36.3133 14.6458 36.6942 14.5827 36.9564L14.5722 37H20.5069L20.5104 36.8982C20.5183 36.6795 20.5316 36.3628 20.5533 35.9684C20.5967 35.1799 20.6741 34.0795 20.8097 32.8309C20.951 31.5297 21.1568 30.0556 21.4571 28.6003ZM21.4724 19.3648C20.4632 20.4688 19.5476 21.6064 18.8288 22.7307C17.2177 25.2501 15.8893 28.8672 14.9681 31.8209C14.5054 33.3043 14.1419 34.6324 13.8939 35.5899C13.7699 36.0688 13.6747 36.4553 13.6104 36.7225C13.5827 36.838 13.5607 36.9312 13.5446 37H8.56841L8.57174 36.9858C8.62825 36.7449 8.71486 36.3917 8.83447 35.946C9.07376 35.0545 9.44483 33.7943 9.97076 32.3248C11.0241 29.3815 12.6917 25.6188 15.1518 22.2976C18.7013 17.5057 22.9386 14.8041 26.2882 13.2999C27.6153 12.7039 28.8021 12.2963 29.75 12.0217C29.3374 12.3334 28.8748 12.6893 28.3771 13.0823C25.285 14.1079 22.7751 16.4103 21.4724 19.3648ZM21.5098 36.9341L21.5075 37H28.4908L28.4876 36.904C28.4798 36.6687 28.4695 36.3272 28.4588 35.9017C28.4517 35.616 28.4444 35.2924 28.4377 34.9376C25.8247 34.0872 23.6225 32.3264 22.2056 30.0296C22.0343 31.0309 21.9034 32.0223 21.8038 32.9388C21.6705 34.1661 21.5945 35.2483 21.5518 36.0234C21.5304 36.4108 21.5174 36.7211 21.5098 36.9341ZM29.4434 35.2148C29.4483 35.453 29.4535 35.6744 29.4585 35.8767C29.4691 36.2993 29.4794 36.6382 29.487 36.8712L29.4913 37H34.5087L34.513 36.8712C34.5206 36.6382 34.5309 36.2993 34.5415 35.8767C34.5465 35.6744 34.5517 35.453 34.5566 35.2148C33.7344 35.4014 32.8787 35.5 32 35.5C31.1213 35.5 30.2656 35.4014 29.4434 35.2148ZM35.5623 34.9376C35.5556 35.2924 35.5483 35.616 35.5412 35.9017C35.5305 36.3272 35.5202 36.6687 35.5124 36.904L35.5092 37H42.4925L42.4902 36.9341C42.4826 36.7211 42.4696 36.4108 42.4482 36.0234C42.4055 35.2483 42.3295 34.1661 42.1962 32.9388C42.0966 32.0223 41.9657 31.0309 41.7944 30.0296C40.3775 32.3264 38.1753 34.0872 35.5623 34.9376ZM42.5429 28.6003C42.8432 30.0556 43.049 31.5297 43.1903 32.8309C43.326 34.0795 43.4033 35.1799 43.4467 35.9684C43.4684 36.3628 43.4817 36.6795 43.4896 36.8982L43.4931 37H49.4278L49.4173 36.9564C49.3542 36.6942 49.2604 36.3133 49.138 35.8406C48.8931 34.8949 48.534 33.5829 48.0773 32.1187C47.1599 29.1773 45.8633 25.6693 44.3288 23.2694C44.0197 22.7861 43.6711 22.2984 43.2918 21.8106C43.4285 22.5194 43.5 23.2513 43.5 24C43.5 25.6357 43.1585 27.1916 42.5429 28.6003ZM42.5276 19.3648C43.5368 20.4688 44.4524 21.6064 45.1712 22.7307C46.7823 25.2501 48.1107 28.8672 49.0319 31.8209C49.4946 33.3043 49.8581 34.6324 50.1061 35.5899C50.2301 36.0688 50.3253 36.4553 50.3896 36.7225C50.4173 36.838 50.4394 36.9312 50.4554 37H55.4316L55.4283 36.9858C55.3717 36.7449 55.2851 36.3917 55.1655 35.946C54.9262 35.0545 54.5552 33.7943 54.0292 32.3248C52.9759 29.3815 51.3083 25.6188 48.8482 22.2976C45.2987 17.5057 41.0614 14.8041 37.7118 13.2999C36.3847 12.7039 35.1979 12.2963 34.25 12.0217C34.6626 12.3334 35.1252 12.6893 35.6229 13.0823C38.715 14.1079 41.2249 16.4103 42.5276 19.3648ZM25.8785 12.3877C27.1056 11.8366 28.2186 11.4402 29.1459 11.158C16.406 12.5768 6.5 23.3816 6.5 36.5V36.9481C6.5 36.9768 6.52323 37 6.5519 37H7.54261C7.5565 36.9376 7.57496 36.8564 7.59818 36.7574C7.65691 36.507 7.74608 36.1435 7.86865 35.6868C8.11374 34.7737 8.49267 33.487 9.02924 31.9878C10.1009 28.9935 11.8083 25.1313 14.3482 21.7024C18.0209 16.7443 22.4086 13.9459 25.8785 12.3877ZM57.4481 37H56.4574C56.4435 36.9376 56.425 36.8564 56.4018 36.7574C56.3431 36.507 56.2539 36.1435 56.1313 35.6868C55.8863 34.7737 55.5073 33.487 54.9708 31.9878C53.8991 28.9935 52.1917 25.1313 49.6518 21.7024C45.9791 16.7443 41.5914 13.9459 38.1215 12.3877C36.8944 11.8366 35.7814 11.4402 34.8541 11.158C47.5939 12.5768 57.5 23.3816 57.5 36.5V36.9481C57.5 36.9768 57.4768 37 57.4481 37Z" fill="#546978"/>
<path d="M32.1844 23.8333C33.8827 23.8333 35.2594 22.3036 35.2594 20.4167C35.2594 18.5297 33.8827 17 32.1844 17C30.4861 17 29.1094 18.5297 29.1094 20.4167C29.1094 22.3036 30.4861 23.8333 32.1844 23.8333Z" fill="#546978"/>
<path d="M39.8548 28.9022C39.3201 26.2406 36.3239 25.5417 32.1936 25.5417C26.5472 25.5417 24.8484 26.8529 24.5141 28.9009C24.4218 29.4662 24.7906 29.9797 25.4164 30.1264C26.4563 30.3701 28.4841 30.6667 32.1936 30.6667C35.903 30.6667 37.9308 30.3701 38.9707 30.1264C39.5966 29.9797 39.9678 29.4646 39.8548 28.9022Z" fill="#546978"/>
<path d="M29.4687 8.03552L32.0043 4.49999L34.5398 8.03552L32.0043 12.5711L29.4687 8.03552Z" fill="#546978"/>
</svg>