<svg viewBox="0 0 17 16" fill="none" xmlns="http://www.w3.org/2000/svg">
<path d="M8.50065 1.33398C4.82732 1.33398 1.83398 4.32732 1.83398 8.00065C1.83398 11.674 4.82732 14.6673 8.50065 14.6673C12.174 14.6673 15.1673 11.674 15.1673 8.00065C15.1673 4.32732 12.174 1.33398 8.50065 1.33398ZM11.4007 10.3807C11.3073 10.5407 11.1407 10.6273 10.9673 10.6273C10.8807 10.6273 10.794 10.6073 10.714 10.554L8.64732 9.32065C8.13398 9.01398 7.75398 8.34065 7.75398 7.74732V5.01398C7.75398 4.74065 7.98065 4.51398 8.25398 4.51398C8.52732 4.51398 8.75398 4.74065 8.75398 5.01398V7.74732C8.75398 7.98732 8.95398 8.34065 9.16065 8.46065L11.2273 9.69398C11.4673 9.83398 11.5473 10.1407 11.4007 10.3807Z" fill="currentcolor"/>
</svg>
    