<svg viewBox="0 0 16 16" fill="none" xmlns="http://www.w3.org/2000/svg">
<path d="M10.394 8.26667V10.98C10.394 11.22 10.3673 11.4467 10.3073 11.6533C10.0607 12.6333 9.24732 13.2467 8.12732 13.2467H6.31398L4.30065 14.5867C4.00065 14.7933 3.60065 14.5733 3.60065 14.2133V13.2467C2.92065 13.2467 2.35398 13.02 1.96065 12.6267C1.56065 12.2267 1.33398 11.66 1.33398 10.98V8.26667C1.33398 7 2.12065 6.12667 3.33398 6.01333C3.42065 6.00667 3.50732 6 3.60065 6H8.12732C9.48732 6 10.394 6.90667 10.394 8.26667Z" fill="currentcolor"/>
<path d="M11.834 10.4007C12.6807 10.4007 13.394 10.1207 13.8873 9.62065C14.3873 9.12732 14.6673 8.41398 14.6673 7.56732V4.16732C14.6673 2.60065 13.4007 1.33398 11.834 1.33398H6.16732C4.60065 1.33398 3.33398 2.60065 3.33398 4.16732V4.66732C3.33398 4.85398 3.48065 5.00065 3.66732 5.00065H8.12732C9.93398 5.00065 11.394 6.46065 11.394 8.26732V10.0673C11.394 10.254 11.5407 10.4007 11.7273 10.4007H11.834Z" fill="currentcolor"/>
</svg>
    