<svg viewBox="0 0 20 20" fill="none" xmlns="http://www.w3.org/2000/svg">
<g clip-path="url(#clip0_7890_89959)">
<path d="M10 0C15.5231 0 20 4.47688 20 10C20 15.5231 15.5231 20 10 20C4.47688 20 0 15.5231 0 10C0 4.47688 4.47688 0 10 0ZM9.89313 5H5.79813V8.24625H4.375V9.40938H5.79813V10.63H4.375V11.7925H5.79813V15H9.89313C12.3556 15 14.2294 13.6906 14.95 11.7931H16.25V10.6306H15.235C15.26 10.424 15.2725 10.2135 15.2725 9.99937V9.97062C15.2725 9.78021 15.2627 9.59313 15.2431 9.40938H16.25V8.24687H14.9744C14.2719 6.32125 12.3837 5 9.89313 5ZM13.6956 11.7931C13.0662 13.09 11.7138 13.9569 9.89313 13.9569H6.94313V11.7931H13.6956ZM14.0481 9.40938C14.0748 9.60104 14.0881 9.79771 14.0881 9.99937V10.0275C14.0881 10.2329 14.0742 10.4337 14.0463 10.63H6.9425V9.40938H14.0487H14.0481ZM9.89375 6.04125C11.7225 6.04125 13.0794 6.93125 13.705 8.24625H6.9425V6.04125H9.8925H9.89375Z" fill="url(#paint0_linear_7890_89959)"/>
</g>
<defs>
<linearGradient id="paint0_linear_7890_89959" x1="10" y1="0" x2="10" y2="20" gradientUnits="userSpaceOnUse">
<stop stop-color="#F0916A"/>
<stop offset="1" stop-color="#F6C859"/>
</linearGradient>
<clipPath id="clip0_7890_89959">
<rect width="20" height="20" fill="white"/>
</clipPath>
</defs>
</svg>
    