<svg viewBox="0 0 16 16" fill="none" xmlns="http://www.w3.org/2000/svg">
<path d="M12.2892 5.2138C12.2383 5.1653 12.1818 5.12286 12.1208 5.08735C12.0346 5.0372 11.9389 5.00506 11.8396 4.99292C11.7402 4.98078 11.6395 4.98889 11.5434 5.01677C11.4474 5.04464 11.3582 5.09167 11.2813 5.15497C11.2045 5.21826 11.1415 5.29646 11.0964 5.38474C10.8443 5.87565 10.4965 6.31253 10.0731 6.67032C10.1378 6.30982 10.1705 5.94441 10.1707 5.57828C10.172 4.46444 9.87464 3.37014 9.30881 2.40679C8.74298 1.44344 7.9289 0.645456 6.94946 0.0940794C6.84157 0.0336442 6.7199 0.00128473 6.59588 3.74743e-05C6.47187 -0.00120978 6.34956 0.028696 6.24044 0.0869487C6.13133 0.145201 6.03897 0.229891 5.97205 0.333071C5.90513 0.436251 5.86584 0.554539 5.85786 0.676835C5.8169 1.36267 5.63545 2.03314 5.3245 2.64763C5.01356 3.26213 4.57959 3.80785 4.0489 4.25173L3.88019 4.38735C3.32526 4.75631 2.83405 5.21114 2.42544 5.73439C1.79028 6.52505 1.35028 7.45107 1.14034 8.439C0.930406 9.42694 0.956306 10.4496 1.21599 11.4259C1.47567 12.4023 1.96199 13.3054 2.63639 14.0637C3.31078 14.8219 4.1547 15.4145 5.10122 15.7944C5.21235 15.8393 5.33296 15.8565 5.45239 15.8444C5.57182 15.8323 5.68641 15.7914 5.78605 15.7252C5.88569 15.6591 5.96732 15.5697 6.02374 15.465C6.08015 15.3603 6.10963 15.2434 6.10955 15.1248C6.10903 15.0481 6.09674 14.9719 6.0731 14.8988C5.90932 14.2905 5.86216 13.6573 5.93405 13.0318C6.62672 14.3228 7.73859 15.346 9.0909 15.9371C9.25597 16.0101 9.44258 16.0199 9.61455 15.9647C10.683 15.6239 11.6455 15.0189 12.4106 14.2071C13.1758 13.3952 13.7181 12.4035 13.9861 11.3263C14.2541 10.249 14.2389 9.12187 13.9419 8.05204C13.6449 6.98221 13.076 6.00518 12.2892 5.2138Z" fill="currentcolor"/>
</svg>
    