<svg viewBox="0 0 42 42" fill="none" xmlns="http://www.w3.org/2000/svg">
<g id="Icons">
<path id="Vector" d="M20.8433 7.16179L20.9999 7L21.1564 7.16179L22.1251 8.16225L22.1264 8.16363L30.8493 17.1741C31.4711 17.8163 31.4711 18.8577 30.8493 19.4999C30.2275 20.1422 29.2194 20.1422 28.5976 19.4999L22.592 13.2965V33.3553C22.592 34.2636 21.8793 35 20.9999 35C20.1205 35 19.4077 34.2636 19.4077 33.3553V13.2965L13.4022 19.4999C12.7804 20.1422 11.7722 20.1422 11.1504 19.4999C10.5286 18.8577 10.5286 17.8163 11.1504 17.1741L19.8734 8.16363L19.8747 8.16225L20.8433 7.16179Z" fill="#504DFF"/>
</g>
</svg>
