<svg  viewBox="0 0 119 42" fill="none" xmlns="http://www.w3.org/2000/svg">
<path d="M105.579 42H100.21L105.276 30.8489L96.2706 12.089H101.942L108.003 25.5577L113.675 12.089H119L105.579 42Z" fill="#050505"/>
<path d="M94.446 12.089L85.7872 21.0973L94.6191 33.3853H88.4714L82.2804 24.6831L79.6827 27.438V33.3853H74.7039V1.72507H79.6827V20.7037L87.7787 12.089H94.446Z" fill="#050505"/>
<path d="M69.3977 9.64011L64.722 11.1269C64.4189 9.20282 62.8171 6.3604 58.7041 6.3604C55.587 6.3604 53.4223 8.45941 53.4223 10.8208C53.4223 12.7886 54.6345 14.2754 57.0157 14.8002L61.4316 15.7185C66.8434 16.8118 69.7441 20.2664 69.7441 24.6393C69.7441 29.4496 65.8909 34.0412 58.8773 34.0412C51.0844 34.0412 47.491 28.9686 47.0148 24.5082L51.8637 23.1088C52.1667 26.3448 54.4613 29.3184 58.8773 29.3184C62.5573 29.3184 64.4622 27.438 64.4622 25.0329C64.4622 23.0214 62.9902 21.4034 60.3493 20.8349L56.0199 19.9166C51.3442 18.9545 48.227 15.8497 48.227 11.2144C48.227 6.01056 52.946 1.72507 58.6608 1.72507C65.8909 1.72507 68.705 6.18548 69.3977 9.64011Z" fill="#050505"/>
<path d="M3.40295 7.4175C3.95161 6.65487 4.55875 5.93695 5.21878 5.27039L5.44023 5.39366L17.7015 17.843L17.8179 17.9943L3.40295 7.4175Z" fill="url(#paint0_radial_6871_18067)"/>
<path d="M5.21875 5.27045C7.87943 2.58341 11.3141 0.816015 15.0306 0.221558L15.1538 0.563726L17.8179 17.7559V17.9944L5.21875 5.27045Z" fill="url(#paint1_radial_6871_18067)"/>
<path d="M25.909 1.9621C26.7401 2.3899 27.5367 2.88295 28.2913 3.43671L28.2594 3.71698L17.8824 17.9421L17.8179 17.9942L25.909 1.9621Z" fill="url(#paint2_radial_6871_18067)"/>
<path d="M35.6358 17.9945C35.6358 19.8827 35.3415 21.7592 34.7637 23.555L34.3422 23.6235L17.9489 18.0619L17.8179 17.9945H35.6358Z" fill="url(#paint3_radial_6871_18067)"/>
<path d="M34.7638 23.5546C34.1861 25.3505 33.332 27.0433 32.2331 28.571L31.827 28.5014L17.9021 18.0828L17.8179 17.9945L34.7638 23.5546Z" fill="url(#paint4_radial_6871_18067)"/>
<path d="M23.3239 35.1081C20.6497 35.9857 17.8078 36.2115 15.0305 35.7673L14.9193 35.4224L17.7375 18.3006L17.8179 17.9945L23.3239 35.1081Z" fill="url(#paint5_radial_6871_18067)"/>
<path d="M15.0305 35.7673C14.1086 35.6198 13.1996 35.3994 12.3118 35.1081L12.2627 34.692L17.7163 18.1822L17.8179 17.9945L15.0305 35.7673Z" fill="url(#paint6_radial_6871_18067)"/>
<path d="M12.3119 35.1081C10.5337 34.5246 8.85749 33.6621 7.34485 32.5522L7.34485 32.2265L17.636 18.1779L17.8179 17.9945L12.3119 35.1081Z" fill="url(#paint7_radial_6871_18067)"/>
<path d="M1.94203 26.1636C0.665482 23.6334 4.24577e-07 20.834 0 17.9943L0.227922 17.9094H17.2415L17.8179 17.9943L1.94203 26.1636Z" fill="url(#paint8_radial_6871_18067)"/>
<path d="M15.0295 0.221711C17.8071 -0.222758 20.6495 0.00309363 23.3242 0.880796L17.8179 17.9944L15.0295 0.221711Z" fill="url(#paint9_radial_6871_18067)"/>
<path d="M28.2911 3.43668C31.335 5.67017 33.6007 8.81946 34.7635 12.4332L17.8179 17.9944L28.2911 3.43668Z" fill="url(#paint10_radial_6871_18067)"/>
<path d="M7.34479 32.5521C5.83215 31.4422 4.50191 30.0988 3.40291 28.5712L17.8179 17.9944L7.34479 32.5521Z" fill="url(#paint11_radial_6871_18067)"/>
<path d="M0 17.9944C1.63457e-07 16.1061 0.294291 14.2296 0.87207 12.4338L17.8179 17.9944L0 17.9944Z" fill="url(#paint12_radial_6871_18067)"/>
<path d="M32.2334 28.5704C31.1345 30.0981 29.8043 31.4416 28.2917 32.5516L17.8179 17.9944L32.2334 28.5704Z" fill="url(#paint13_radial_6871_18067)"/>
<defs>
<radialGradient id="paint0_radial_6871_18067" cx="0" cy="0" r="1" gradientUnits="userSpaceOnUse" gradientTransform="translate(17.8179 17.9943) rotate(-138.912) scale(18.0019 18.0269)">
<stop stop-color="#A273FF"/>
<stop offset="1" stop-color="#4331E9"/>
<stop offset="1" stop-color="#4331E9"/>
</radialGradient>
<radialGradient id="paint1_radial_6871_18067" cx="0" cy="0" r="1" gradientUnits="userSpaceOnUse" gradientTransform="translate(17.8179 17.9944) rotate(-98.9078) scale(18.4219 18.2499)">
<stop stop-color="#F7A7F9"/>
<stop offset="1" stop-color="#00DDFB"/>
</radialGradient>
<radialGradient id="paint2_radial_6871_18067" cx="0" cy="0" r="1" gradientUnits="userSpaceOnUse" gradientTransform="translate(17.8179 17.9942) rotate(-180) scale(18.2581 18.4389)">
<stop stop-color="#FFF3D0"/>
<stop offset="1" stop-color="#FFC044"/>
</radialGradient>
<radialGradient id="paint3_radial_6871_18067" cx="0" cy="0" r="1" gradientUnits="userSpaceOnUse" gradientTransform="translate(17.8179 17.9945) rotate(-90) scale(18.4076 18.2272)">
<stop stop-color="#A273FF"/>
<stop offset="0.5" stop-color="#9FAEFF"/>
<stop offset="1" stop-color="#AAF2E1"/>
</radialGradient>
<radialGradient id="paint4_radial_6871_18067" cx="0" cy="0" r="1" gradientUnits="userSpaceOnUse" gradientTransform="translate(17.8179 17.9945) rotate(36.2593) scale(18.2374 18.2923)">
<stop stop-color="#0075FF"/>
<stop offset="1" stop-color="#00DDFB"/>
</radialGradient>
<radialGradient id="paint5_radial_6871_18067" cx="0" cy="0" r="1" gradientUnits="userSpaceOnUse" gradientTransform="translate(17.8179 17.9945) rotate(90) scale(18.4227 18.242)">
<stop stop-color="#FFCD6B"/>
<stop offset="1" stop-color="#EB5EDF"/>
</radialGradient>
<radialGradient id="paint6_radial_6871_18067" cx="0" cy="0" r="1" gradientUnits="userSpaceOnUse" gradientTransform="translate(17.8179 17.9945) rotate(90) scale(18.4608 18.2797)">
<stop stop-color="#D5FAFF"/>
<stop offset="1" stop-color="#00DDFB"/>
</radialGradient>
<radialGradient id="paint7_radial_6871_18067" cx="0" cy="0" r="1" gradientUnits="userSpaceOnUse" gradientTransform="translate(17.8179 17.9945) rotate(113.962) scale(19.6914 19.5623)">
<stop stop-color="#FFD2B9"/>
<stop offset="0.289583" stop-color="#C99BED"/>
<stop offset="1" stop-color="#0075FF"/>
</radialGradient>
<radialGradient id="paint8_radial_6871_18067" cx="0" cy="0" r="1" gradientUnits="userSpaceOnUse" gradientTransform="translate(17.8179 17.9943) rotate(-180) scale(23.7336 23.9687)">
<stop stop-color="#6D28FF"/>
<stop offset="1" stop-color="#F7A7F9"/>
</radialGradient>
<radialGradient id="paint9_radial_6871_18067" cx="0" cy="0" r="1" gradientUnits="userSpaceOnUse" gradientTransform="translate(17.8179 17.9944) rotate(-90) scale(18.4078 18.2272)">
<stop stop-color="#A273FF"/>
<stop offset="0.5" stop-color="#9FAEFF"/>
<stop offset="1" stop-color="#AAF2E1"/>
</radialGradient>
<radialGradient id="paint10_radial_6871_18067" cx="0" cy="0" r="1" gradientUnits="userSpaceOnUse" gradientTransform="translate(17.8179 17.9944) rotate(90) scale(18.4227 18.242)">
<stop stop-color="#FFCD6B"/>
<stop offset="1" stop-color="#EB5EDF"/>
</radialGradient>
<radialGradient id="paint11_radial_6871_18067" cx="0" cy="0" r="1" gradientUnits="userSpaceOnUse" gradientTransform="translate(17.8179 17.9944) rotate(-138.912) scale(18.0019 18.0269)">
<stop stop-color="#A273FF"/>
<stop offset="1" stop-color="#4331E9"/>
<stop offset="1" stop-color="#4331E9"/>
</radialGradient>
<radialGradient id="paint12_radial_6871_18067" cx="0" cy="0" r="1" gradientUnits="userSpaceOnUse" gradientTransform="translate(17.8179 17.9944) rotate(-180) scale(18.2581 18.4389)">
<stop stop-color="#FFF3D0"/>
<stop offset="1" stop-color="#FFC044"/>
</radialGradient>
<radialGradient id="paint13_radial_6871_18067" cx="0" cy="0" r="1" gradientUnits="userSpaceOnUse" gradientTransform="translate(17.8179 17.9944) rotate(-138.912) scale(18.0019 18.0269)">
<stop stop-color="#A273FF"/>
<stop offset="1" stop-color="#4331E9"/>
<stop offset="1" stop-color="#4331E9"/>
</radialGradient>
</defs>
</svg>
