<svg viewBox="0 0 48 48" fill="none" xmlns="http://www.w3.org/2000/svg">
<path d="M4.58362 9.89326C5.32263 8.87609 6.14043 7.91857 7.02946 7.02954L7.32775 7.19395L23.8433 23.7982L24 24.0001L4.58362 9.89326Z" fill="url(#paint0_radial_6871_24903)"/>
<path d="M7.02942 7.0294C10.6133 3.44557 15.2397 1.0883 20.2456 0.295441L20.4116 0.751808L24 23.6818V24L7.02942 7.0294Z" fill="url(#paint1_radial_6871_24903)"/>
<path d="M34.8984 2.61703C36.0179 3.18761 37.0908 3.84523 38.1073 4.58381L38.0644 4.95761L24.0869 23.9304L24 23.9999L34.8984 2.61703Z" fill="url(#paint2_radial_6871_24903)"/>
<path d="M48 24.0002C48 26.5186 47.6036 29.0213 46.8254 31.4165L46.2577 31.5079L24.1765 24.0901L24 24.0002H48Z" fill="url(#paint3_radial_6871_24903)"/>
<path d="M46.8255 31.416C46.0473 33.8112 44.897 36.069 43.4167 38.1066L42.8697 38.0138L24.1134 24.118L24 24.0002L46.8255 31.416Z" fill="url(#paint4_radial_6871_24903)"/>
<path d="M31.4165 46.8255C27.8144 47.9959 23.9864 48.2972 20.2456 47.7047L20.0958 47.2446L23.8918 24.4085L24.0001 24.0002L31.4165 46.8255Z" fill="url(#paint5_radial_6871_24903)"/>
<path d="M20.2456 47.7047C19.0038 47.508 17.7794 47.214 16.5837 46.8255L16.5175 46.2705L23.8633 24.2506L24.0001 24.0002L20.2456 47.7047Z" fill="url(#paint6_radial_6871_24903)"/>
<path d="M16.5836 46.8255C14.1884 46.0473 11.9307 44.8969 9.89319 43.4166L9.89319 42.9822L23.7549 24.2448L24 24.0002L16.5836 46.8255Z" fill="url(#paint7_radial_6871_24903)"/>
<path d="M2.61584 34.8959C0.896378 31.5213 5.71889e-07 27.7876 0 24.0001L0.307002 23.8869H23.2236L24 24.0001L2.61584 34.8959Z" fill="url(#paint8_radial_6871_24903)"/>
<path d="M20.2441 0.295707C23.9855 -0.297104 27.8141 0.00412614 31.4168 1.17476L24 24L20.2441 0.295707Z" fill="url(#paint9_radial_6871_24903)"/>
<path d="M38.107 4.58368C42.207 7.56259 45.2589 11.763 46.8251 16.5828L24 24L38.107 4.58368Z" fill="url(#paint10_radial_6871_24903)"/>
<path d="M9.89316 43.4164C7.85568 41.9361 6.0639 40.1443 4.58359 38.1068L24 24L9.89316 43.4164Z" fill="url(#paint11_radial_6871_24903)"/>
<path d="M0 24C2.2017e-07 21.4815 0.396399 18.9788 1.17465 16.5836L24 24L0 24Z" fill="url(#paint12_radial_6871_24903)"/>
<path d="M43.4171 38.1058C41.9369 40.1434 40.1452 41.9353 38.1078 43.4157L24 24L43.4171 38.1058Z" fill="url(#paint13_radial_6871_24903)"/>
<defs>
<radialGradient id="paint0_radial_6871_24903" cx="0" cy="0" r="1" gradientUnits="userSpaceOnUse" gradientTransform="translate(24 24.0001) rotate(-139.191) scale(24.1454 24.1454)">
<stop stop-color="#A273FF"/>
<stop offset="1" stop-color="#4331E9"/>
<stop offset="1" stop-color="#4331E9"/>
</radialGradient>
<radialGradient id="paint1_radial_6871_24903" cx="0" cy="0" r="1" gradientUnits="userSpaceOnUse" gradientTransform="translate(24 24) rotate(-98.9946) scale(24.5761 24.5761)">
<stop stop-color="#F7A7F9"/>
<stop offset="1" stop-color="#00DDFB"/>
</radialGradient>
<radialGradient id="paint2_radial_6871_24903" cx="0" cy="0" r="1" gradientUnits="userSpaceOnUse" gradientTransform="translate(24 23.9999) rotate(-180) scale(24.5929 24.5929)">
<stop stop-color="#FFF3D0"/>
<stop offset="1" stop-color="#FFC044"/>
</radialGradient>
<radialGradient id="paint3_radial_6871_24903" cx="0" cy="0" r="1" gradientUnits="userSpaceOnUse" gradientTransform="translate(24 24.0001) rotate(-90) scale(24.5511 24.5513)">
<stop stop-color="#A273FF"/>
<stop offset="0.5" stop-color="#9FAEFF"/>
<stop offset="1" stop-color="#AAF2E1"/>
</radialGradient>
<radialGradient id="paint4_radial_6871_24903" cx="0" cy="0" r="1" gradientUnits="userSpaceOnUse" gradientTransform="translate(24 24.0002) rotate(35.9904) scale(24.4811 24.4811)">
<stop stop-color="#0075FF"/>
<stop offset="1" stop-color="#00DDFB"/>
</radialGradient>
<radialGradient id="paint5_radial_6871_24903" cx="0" cy="0" r="1" gradientUnits="userSpaceOnUse" gradientTransform="translate(24 24.0001) rotate(90) scale(24.5713 24.5712)">
<stop stop-color="#FFCD6B"/>
<stop offset="1" stop-color="#EB5EDF"/>
</radialGradient>
<radialGradient id="paint6_radial_6871_24903" cx="0" cy="0" r="1" gradientUnits="userSpaceOnUse" gradientTransform="translate(24.0001 24.0001) rotate(90) scale(24.6221 24.6221)">
<stop stop-color="#D5FAFF"/>
<stop offset="1" stop-color="#00DDFB"/>
</radialGradient>
<radialGradient id="paint7_radial_6871_24903" cx="0" cy="0" r="1" gradientUnits="userSpaceOnUse" gradientTransform="translate(24 24.0002) rotate(114.172) scale(26.3065 26.3064)">
<stop stop-color="#FFD2B9"/>
<stop offset="0.289583" stop-color="#C99BED"/>
<stop offset="1" stop-color="#0075FF"/>
</radialGradient>
<radialGradient id="paint8_radial_6871_24903" cx="0" cy="0" r="1" gradientUnits="userSpaceOnUse" gradientTransform="translate(24 24.0001) rotate(-180) scale(31.9683)">
<stop stop-color="#6D28FF"/>
<stop offset="1" stop-color="#F7A7F9"/>
</radialGradient>
<radialGradient id="paint9_radial_6871_24903" cx="0" cy="0" r="1" gradientUnits="userSpaceOnUse" gradientTransform="translate(24 24) rotate(-90) scale(24.5514 24.5513)">
<stop stop-color="#A273FF"/>
<stop offset="0.5" stop-color="#9FAEFF"/>
<stop offset="1" stop-color="#AAF2E1"/>
</radialGradient>
<radialGradient id="paint10_radial_6871_24903" cx="0" cy="0" r="1" gradientUnits="userSpaceOnUse" gradientTransform="translate(24 24) rotate(90) scale(24.5713 24.5712)">
<stop stop-color="#FFCD6B"/>
<stop offset="1" stop-color="#EB5EDF"/>
</radialGradient>
<radialGradient id="paint11_radial_6871_24903" cx="0" cy="0" r="1" gradientUnits="userSpaceOnUse" gradientTransform="translate(24 24) rotate(-139.191) scale(24.1454 24.1454)">
<stop stop-color="#A273FF"/>
<stop offset="1" stop-color="#4331E9"/>
<stop offset="1" stop-color="#4331E9"/>
</radialGradient>
<radialGradient id="paint12_radial_6871_24903" cx="0" cy="0" r="1" gradientUnits="userSpaceOnUse" gradientTransform="translate(24 24) rotate(-180) scale(24.5929)">
<stop stop-color="#FFF3D0"/>
<stop offset="1" stop-color="#FFC044"/>
</radialGradient>
<radialGradient id="paint13_radial_6871_24903" cx="0" cy="0" r="1" gradientUnits="userSpaceOnUse" gradientTransform="translate(24 24) rotate(-139.191) scale(24.1454 24.1454)">
<stop stop-color="#A273FF"/>
<stop offset="1" stop-color="#4331E9"/>
<stop offset="1" stop-color="#4331E9"/>
</radialGradient>
</defs>
</svg>
