<svg width="48" height="48" viewBox="0 0 48 48" fill="none" xmlns="http://www.w3.org/2000/svg">
<path d="M4.58359 9.89413C7.56267 5.79379 11.7634 2.74181 16.5836 1.17562C21.4038 -0.390572 26.5962 -0.390571 31.4164 1.17562L24 24.001L4.58359 9.89413Z" fill="#9DA6B9"/>
<path d="M2.61585 34.8968C1.18499 32.0885 0.321267 29.026 0.0739857 25.884C-0.173296 22.742 0.200708 19.582 1.17464 16.5846L24 24.001L2.61585 34.8968Z" fill="#9DA6B9"/>
<path d="M34.8984 2.61816C40.5695 5.50859 44.8601 10.5335 46.8263 16.5874L24 24.001L34.8984 2.61816Z" fill="#9DA6B9"/>
<path d="M48 24.001C48 27.7884 47.1036 31.5221 45.3842 34.8967C43.6647 38.2714 41.171 41.1912 38.1068 43.4174L24 24.001H48Z" fill="#9DA6B9"/>
<path d="M31.4164 46.8263C26.5962 48.3925 21.4038 48.3925 16.5836 46.8263L24 24.001L31.4164 46.8263Z" fill="#9DA6B9"/>
<path d="M9.89316 43.4174C7.85568 41.9371 6.0639 40.1453 4.58359 38.1078L24 24.001L9.89316 43.4174Z" fill="#9DA6B9"/>
</svg>
