<svg viewBox="0 0 16 16" fill="none" xmlns="http://www.w3.org/2000/svg">
<path d="M5.59375 12.3265V5.55315C5.59375 5.28649 5.67375 5.02649 5.82042 4.80649L7.64042 2.09982C7.92708 1.66649 8.64042 1.35982 9.24708 1.58649C9.90042 1.80649 10.3337 2.53982 10.1937 3.19315L9.84708 5.37315C9.82042 5.57315 9.87375 5.75315 9.98708 5.89315C10.1004 6.01982 10.2671 6.09982 10.4471 6.09982H13.1871C13.7138 6.09982 14.1671 6.31315 14.4338 6.68649C14.6871 7.04649 14.7338 7.51315 14.5671 7.98649L12.9271 12.9798C12.7204 13.8065 11.8204 14.4798 10.9271 14.4798H8.32708C7.88042 14.4798 7.25375 14.3265 6.96708 14.0398L6.11375 13.3798C5.78708 13.1332 5.59375 12.7398 5.59375 12.3265Z" fill="currentcolor" />
<path d="M3.47398 4.25391H2.78732C1.75398 4.25391 1.33398 4.65391 1.33398 5.64057V12.3472C1.33398 13.3339 1.75398 13.7339 2.78732 13.7339H3.47398C4.50732 13.7339 4.92732 13.3339 4.92732 12.3472V5.64057C4.92732 4.65391 4.50732 4.25391 3.47398 4.25391Z" fill="currentcolor"/>
</svg>
