<svg viewBox="0 0 20 20" fill="none" xmlns="http://www.w3.org/2000/svg">
<path fill-rule="evenodd" clip-rule="evenodd" d="M10 20C15.5228 20 20 15.5228 20 10C20 4.47715 15.5228 0 10 0C4.47715 0 0 4.47715 0 10C0 15.5228 4.47715 20 10 20ZM10.3218 3.75C8.98546 3.75 7.85845 4.05138 7.03069 4.69648C6.18837 5.35293 5.73078 6.30705 5.6364 7.4485C5.53319 8.69687 6.13831 9.65552 6.91418 10.3491C7.67968 11.0333 8.65967 11.5083 9.46466 11.8303C10.1915 12.121 10.737 12.4709 11.0908 12.8248C11.446 13.18 11.5718 13.499 11.5718 13.75C11.5718 14.1687 11.4983 14.6418 11.2532 14.9958C11.0373 15.3077 10.621 15.625 9.69678 15.625C9.06493 15.625 8.35582 15.2138 7.75816 14.6308C7.47032 14.3499 7.23605 14.0554 7.0782 13.8062C6.99914 13.6814 6.94495 13.5769 6.9125 13.4986C6.89255 13.4504 6.88582 13.4241 6.88389 13.4166C6.88349 13.415 6.88329 13.4143 6.88323 13.4143C6.88302 13.4143 6.88417 13.4224 6.88417 13.4375H5.63417C5.63417 13.6363 5.69595 13.828 5.75769 13.977C5.82438 14.138 5.9157 14.3069 6.0222 14.475C6.23546 14.8118 6.53247 15.1813 6.88528 15.5255C7.56893 16.1924 8.57862 16.875 9.69678 16.875C11.0381 16.875 12.3059 16.5348 13.2391 15.8478C14.1926 15.1459 14.7769 14.09 14.6956 12.7739C14.6602 12.2015 14.4019 11.688 14.0954 11.2657C13.786 10.8395 13.396 10.4628 13.0281 10.1557C12.6577 9.84651 12.2935 9.59441 12.0232 9.42009C11.8875 9.33256 11.774 9.26374 11.6935 9.21622C11.6532 9.19244 11.621 9.17395 11.5983 9.16105L11.5714 9.14594L11.5636 9.1416L11.5612 9.14025L11.5603 9.13978L11.56 9.1396C11.5598 9.13952 11.5597 9.13945 11.2593 9.6875L11.5597 9.13945L11.549 9.13354L11.5385 9.12834L11.5383 9.12826L11.5382 9.12818L11.5381 9.12816L11.538 9.12807L11.5348 9.12647L11.518 9.11785C11.5024 9.10981 11.4784 9.09723 11.447 9.08033C11.3841 9.04652 11.2922 8.99562 11.1801 8.92949C10.9549 8.79664 10.6537 8.60528 10.346 8.37039C10.0364 8.13404 9.73377 7.86385 9.49631 7.57595C9.25619 7.28482 9.10918 7.00764 9.06033 6.75593C8.9515 6.19513 9.09474 5.78678 9.32882 5.50922C9.56895 5.22449 9.93903 5.03795 10.3474 5.00008C11.4172 5.00638 12.1956 5.40636 12.7068 5.88565C13.2491 6.39407 13.4468 6.94309 13.4468 7.1875H14.6968C14.6968 6.49441 14.2694 5.63718 13.5617 4.97373C12.8271 4.28496 11.7388 3.75 10.3218 3.75ZM13.448 12.8511C13.494 13.5961 13.2266 14.1962 12.7282 14.6525C12.802 14.319 12.8218 14.0037 12.8218 13.75C12.8218 13.0635 12.4788 12.445 11.9747 11.9409C11.4691 11.4353 10.7645 11.004 9.9289 10.6697C9.17139 10.3667 8.35078 9.95662 7.74723 9.41711C7.15405 8.88688 6.82167 8.28302 6.88215 7.5515C6.95271 6.69817 7.27637 6.08979 7.79907 5.68243C7.82562 5.66174 7.85287 5.64142 7.88082 5.6215C7.76011 6.03409 7.73677 6.49703 7.83323 6.99407C7.93599 7.52361 8.21635 7.98862 8.532 8.37131C8.85032 8.75725 9.2319 9.09253 9.5875 9.36398C9.94503 9.63691 10.29 9.85571 10.5449 10.0061C10.6728 10.0815 10.7792 10.1405 10.8548 10.1811C10.8926 10.2015 10.9227 10.2173 10.9441 10.2283L10.9658 10.2395L10.9812 10.2481C10.9983 10.2578 11.0244 10.2728 11.0585 10.2929C11.1266 10.3331 11.2257 10.3932 11.3457 10.4706C11.587 10.6261 11.9069 10.848 12.227 11.1153C12.5495 11.3845 12.8563 11.6867 13.0838 12C13.3141 12.3173 13.4327 12.6042 13.448 12.8511Z" fill="url(#paint0_linear_7890_89955)"/>
<defs>
<linearGradient id="paint0_linear_7890_89955" x1="10" y1="0" x2="10" y2="20" gradientUnits="userSpaceOnUse">
<stop stop-color="#F0916A"/>
<stop offset="1" stop-color="#F6C859"/>
</linearGradient>
</defs>
</svg>
    